{"title":"Euro.Angels.Hardball.22.Super.Hard.Sex.DVDRip.x264.Iou1","uid":9516004,"size":1470868502,"categoryP":"porn","categoryS":"movies","magnet":"?xt=urn:btih:9657224ed162853895fa46988ad7559b4f5a6b14&amp;dn=Euro.Angels.Hardball.22.Super.Hard.Sex.DVDRip.x264.Iou1&amp;tr=udp%3A%2F%2Ftracker.openbittorrent.com%3A80&amp;tr=udp%3A%2F%2Fopen.demonii.com%3A1337&amp;tr=udp%3A%2F%2Ftracker.coppersurfer.tk%3A6969&amp;tr=udp%3A%2F%2Fexodus.desync.com%3A6969","seeders":0,"leechers":1,"uploader":"jaybee211","files":-1,"time":1390524892,"description":"Genre                                    : XXX\nFormat                                   : MPEG-4\nFormat profile                           : Base Media / Version 2\nCodec ID                                 : mp42\nFile size                                : 1.37 GiB\nDuration                                 : 2h 20mn\nOverall bit rate mode                    : Variable\nOverall bit rate                         : 1 393 Kbps\n\nVideo\nID                                       : 1\nFormat                                   : AVC\nFormat/Info                              : Advanced Video Codec\nFormat profile                           : &lt;a class=&quot;__cf_email__&quot; href=&quot;/cdn-cgi/l/email-protection&quot; data-cfemail=&quot;5911303e3119156a7768&quot;&gt;[email&amp;#160;protected]&lt;/a&gt;&lt;script cf-hash='f9e31' type=&quot;text/javascript&quot;&gt;\n/* &lt;![CDATA[ */!function(){try{var t=&quot;currentScript&quot;in document?document.currentScript:function(){for(var t=document.getElementsByTagName(&quot;script&quot;),e=t.length;e--;)if(t[e].getAttribute(&quot;cf-hash&quot;))return t[e]}();if(t&amp;&amp;t.previousSibling){var e,r,n,i,c=t.previousSibling,a=c.getAttribute(&quot;data-cfemail&quot;);if(a){for(e=&quot;&quot;,r=parseInt(a.substr(0,2),16),n=2;a.length-n;n+=2)i=parseInt(a.substr(n,2),16)^r,e+=String.fromCharCode(i);e=document.createTextNode(e),c.parentNode.replaceChild(e,c)}}}catch(u){}}();/* ]]&gt; */&lt;/script&gt;\nFormat settings, CABAC                   : Yes\nFormat settings, ReFrames                : 4 frames\nCodec ID                                 : avc1\nCodec ID/Info                            : Advanced Video Coding\nDuration                                 : 2h 20mn\nBit rate                                 : 1 311 Kbps\nMaximum bit rate                         : 3 268 Kbps\nWidth                                    : 720 pixels\nHeight                                   : 540 pixels\nDisplay aspect ratio                     : 4:3\nFrame rate mode                          : Constant\nFrame rate                               : 29.970 fps\nColor space                              : YUV\nChroma subsampling                       : 4:2:0\nBit depth                                : 8 bits\nScan type                                : Progressive\nBits/(Pixel*Frame)                       : 0.113\nStream size                              : 1.29 GiB (94%)\n\nAudio\nID                                       : 2\nFormat                                   : AAC\nFormat/Info                              : Advanced Audio Codec\nFormat profile                           : LC\nCodec ID                                 : 40\nDuration                                 : 2h 20mn\nBit rate mode                            : Variable\nBit rate                                 : 77.9 Kbps\nMaximum bit rate                         : 89.9 Kbps\nChannel(s)                               : 2 channels\nChannel positions                        : Front: L R\nSampling rate                            : 48.0 KHz\nCompression mode                         : Lossy\nStream size                              : 78.5 MiB (6%)\nLanguage                                 : English\n\nScreens. &lt;a href=&quot; http://bayimg.com/bahFDAAFk&quot; rel=&quot;nofollow&quot; target=&quot;_NEW&quot;&gt; http://bayimg.com/bahFDAAFk&lt;/a&gt;\n\nCovers. &lt;a href=&quot; http://bayimg.com/bAhfhaaFk&quot; rel=&quot;nofollow&quot; target=&quot;_NEW&quot;&gt; http://bayimg.com/bAhfhaaFk&lt;/a&gt;\n\n        &lt;a href=&quot; http://bayimg.com/BaHFiAAfK&quot; rel=&quot;nofollow&quot; target=&quot;_NEW&quot;&gt; http://bayimg.com/BaHFiAAfK&lt;/a&gt;\n\nEnjoy.","torrent":{"xt":"urn:btih:9657224ed162853895fa46988ad7559b4f5a6b14","amp;dn":"Euro.Angels.Hardball.22.Super.Hard.Sex.DVDRip.x264.Iou1","amp;tr":["udp%3A%2F%2Ftracker.openbittorrent.com%3A80","udp%3A%2F%2Fopen.demonii.com%3A1337","udp%3A%2F%2Ftracker.coppersurfer.tk%3A6969","udp%3A%2F%2Fexodus.desync.com%3A6969"],"infoHash":"9657224ed162853895fa46988ad7559b4f5a6b14","infoHashBuffer":{"type":"Buffer","data":[150,87,34,78,209,98,133,56,149,250,70,152,138,215,85,155,79,90,107,20]},"announce":[],"urlList":[]}}